HIERARCHY
ROOT Hips
{
	OFFSET 0.000000 71.427986 0.000000
	CHANNELS 6 Xposition Yposition Zposition Xrotation Yrotation Zrotation
	JOINT Pelvis
	{
		OFFSET 0.000000 0.000000 0.000000
		CHANNELS 3 Xrotation Yrotation Zrotation
		JOINT LeftUpLeg
		{
			OFFSET 6.797100 -2.508499 -1.318700
			CHANNELS 3 Xrotation Yrotation Zrotation
			JOINT LeftLeg
			{
				OFFSET 0.069008 -29.241863 0.690200
				CHANNELS 3 Xrotation Yrotation Zrotation
				JOINT LeftFoot
				{
					OFFSET -0.069008 -29.568123 -0.266800
					CHANNELS 3 Xrotation Yrotation Zrotation
					JOINT LeftToeBase
					{
						OFFSET 3.145500 -8.631000 16.059900
						CHANNELS 3 Xrotation Yrotation Zrotation
						End Site
						{
							OFFSET 0.000000 18.501587 0.000000
						}
					}
				}
			}
			JOINT Left_ShortSleeve
			{
				OFFSET 0.265923 -10.480953 1.153800
				CHANNELS 3 Xrotation Yrotation Zrotation
				End Site
				{
					OFFSET 1.725763 19.823879 0.000000
				}
			}
		}
		JOINT RightUpLeg
		{
			OFFSET -6.797100 -2.508499 -1.318700
			CHANNELS 3 Xrotation Yrotation Zrotation
			JOINT RightLeg
			{
				OFFSET -0.082453 -29.241932 0.688000
				CHANNELS 3 Xrotation Yrotation Zrotation
				JOINT RightFoot
				{
					OFFSET 0.082453 -29.568058 -0.264600
					CHANNELS 3 Xrotation Yrotation Zrotation
					JOINT RightToeBase
					{
						OFFSET -3.115300 -8.682800 16.113400
						CHANNELS 3 Xrotation Yrotation Zrotation
						End Site
						{
							OFFSET 0.000000 18.567114 0.000000
						}
					}
				}
			}
			JOINT Right_ShortSleeve
			{
				OFFSET -0.265923 -10.480953 1.153800
				CHANNELS 3 Xrotation Yrotation Zrotation
				End Site
				{
					OFFSET -1.725766 19.823910 0.000000
				}
			}
		}
	}
	JOINT Spine
	{
		OFFSET 0.000000 13.368103 0.470500
		CHANNELS 3 Xrotation Yrotation Zrotation
		JOINT Spine1
		{
			OFFSET 0.147000 13.837402 0.538800
			CHANNELS 3 Xrotation Yrotation Zrotation
			JOINT Spine2
			{
				OFFSET 0.168000 16.242897 -1.435500
				CHANNELS 3 Xrotation Yrotation Zrotation
				JOINT Neck
				{
					OFFSET 0.217200 18.631500 -1.679100
					CHANNELS 3 Xrotation Yrotation Zrotation
					JOINT Head
					{
						OFFSET 0.000000 6.599396 1.385900
						CHANNELS 3 Xrotation Yrotation Zrotation
						JOINT Hat
						{
							OFFSET -0.532200 27.220596 -10.096100
							CHANNELS 3 Xrotation Yrotation Zrotation
							End Site
							{
								OFFSET 0.000000 22.029861 0.000000
							}
						}
						JOINT HairD
						{
							OFFSET -10.777400 17.437393 -1.325900
							CHANNELS 3 Xrotation Yrotation Zrotation
							JOINT HairD1
							{
								OFFSET -3.290299 -11.051193 1.062200
								CHANNELS 3 Xrotation Yrotation Zrotation
								End Site
								{
									OFFSET 0.000000 11.579437 0.000000
								}
							}
						}
						JOINT HairB
						{
							OFFSET -10.777400 17.437393 1.467900
							CHANNELS 3 Xrotation Yrotation Zrotation
							JOINT HairB1
							{
								OFFSET -1.561200 -12.956299 3.590200
								CHANNELS 3 Xrotation Yrotation Zrotation
								End Site
								{
									OFFSET 0.000000 13.534866 0.000000
								}
							}
						}
						JOINT HairA
						{
							OFFSET 9.713100 17.437393 1.467900
							CHANNELS 3 Xrotation Yrotation Zrotation
							JOINT HairA1
							{
								OFFSET 1.561200 -12.956299 3.590200
								CHANNELS 3 Xrotation Yrotation Zrotation
								End Site
								{
									OFFSET 0.000000 13.534866 0.000000
								}
							}
						}
						JOINT HairC
						{
							OFFSET 9.713100 17.437393 -1.325900
							CHANNELS 3 Xrotation Yrotation Zrotation
							JOINT HairC1
							{
								OFFSET 3.290300 -11.051193 1.062200
								CHANNELS 3 Xrotation Yrotation Zrotation
								End Site
								{
									OFFSET 0.000000 11.579437 0.000000
								}
							}
						}
					}
				}
				JOINT LeftShoulder
				{
					OFFSET 5.101800 15.108002 -2.763700
					CHANNELS 3 Xrotation Yrotation Zrotation
					JOINT LeftArm
					{
						OFFSET 9.825497 2.506317 -1.597400
						CHANNELS 3 Xrotation Yrotation Zrotation
						JOINT LeftForeArm
						{
							OFFSET 21.966244 0.000000 0.000000
							CHANNELS 3 Xrotation Yrotation Zrotation
							JOINT LeftHand
							{
								OFFSET 33.879036 0.000000 0.000000
								CHANNELS 3 Xrotation Yrotation Zrotation
								JOINT LeftHandThumb1
								{
									OFFSET 6.715286 -2.359680 3.363841
									CHANNELS 3 Xrotation Yrotation Zrotation
									JOINT LeftHandThumb2
									{
										OFFSET 2.507072 -1.447464 1.447461
										CHANNELS 3 Xrotation Yrotation Zrotation
										JOINT LeftHandThumb3
										{
											OFFSET 2.898338 -1.673355 1.673357
											CHANNELS 3 Xrotation Yrotation Zrotation
											End Site
											{
												OFFSET -0.295959 3.727692 -0.131651
											}
										}
									}
								}
								JOINT LeftHandIndex1
								{
									OFFSET 14.190811 -0.254547 3.840278
									CHANNELS 3 Xrotation Yrotation Zrotation
									JOINT LeftHandIndex2
									{
										OFFSET 3.551727 0.000000 -0.000000
										CHANNELS 3 Xrotation Yrotation Zrotation
										JOINT LeftHandIndex3
										{
											OFFSET 2.894196 0.000000 0.000000
											CHANNELS 3 Xrotation Yrotation Zrotation
											End Site
											{
												OFFSET -1.000603 2.690872 0.366626
											}
										}
									}
								}
								JOINT LeftHandMiddle1
								{
									OFFSET 13.776489 0.000000 0.000000
									CHANNELS 3 Xrotation Yrotation Zrotation
									JOINT LeftHandMiddle2
									{
										OFFSET 3.438232 0.000000 0.000000
										CHANNELS 3 Xrotation Yrotation Zrotation
										JOINT LeftHandMiddle3
										{
											OFFSET 3.691551 0.000000 0.000000
											CHANNELS 3 Xrotation Yrotation Zrotation
											End Site
											{
												OFFSET -1.082298 3.499527 0.457670
											}
										}
									}
								}
								JOINT LeftHandRing1
								{
									OFFSET 13.966164 -0.268127 -3.067488
									CHANNELS 3 Xrotation Yrotation Zrotation
									JOINT LeftHandRing2
									{
										OFFSET 3.162567 0.000000 0.000000
										CHANNELS 3 Xrotation Yrotation Zrotation
										JOINT LeftHandRing3
										{
											OFFSET 3.324348 0.000000 0.000000
											CHANNELS 3 Xrotation Yrotation Zrotation
											End Site
											{
												OFFSET -0.861900 3.184998 0.405154
											}
										}
									}
								}
								JOINT LeftHandPinky1
								{
									OFFSET 13.131393 -0.168503 -5.746925
									CHANNELS 3 Xrotation Yrotation Zrotation
									JOINT LeftHandPinky2
									{
										OFFSET 2.849182 0.000000 0.000000
										CHANNELS 3 Xrotation Yrotation Zrotation
										JOINT LeftHandPinky3
										{
											OFFSET 2.805038 0.000000 0.000000
											CHANNELS 3 Xrotation Yrotation Zrotation
											End Site
											{
												OFFSET -0.882500 2.642609 0.325652
											}
										}
									}
								}
							}
							JOINT Left_Sleeve
							{
								OFFSET 6.592125 -0.646545 0.805568
								CHANNELS 3 Xrotation Yrotation Zrotation
								End Site
								{
									OFFSET -0.000179 20.275787 -0.000000
								}
							}
						}
					}
				}
				JOINT RightShoulder
				{
					OFFSET -5.731700 15.108002 -2.763700
					CHANNELS 3 Xrotation Yrotation Zrotation
					JOINT RightArm
					{
						OFFSET -9.825497 2.506317 -1.597400
						CHANNELS 3 Xrotation Yrotation Zrotation
						JOINT RightForeArm
						{
							OFFSET -21.966242 0.000000 0.000000
							CHANNELS 3 Xrotation Yrotation Zrotation
							JOINT RightHand
							{
								OFFSET -33.879032 0.000000 0.000000
								CHANNELS 3 Xrotation Yrotation Zrotation
								JOINT RightHandThumb1
								{
									OFFSET -6.715286 -2.359680 3.363841
									CHANNELS 3 Xrotation Yrotation Zrotation
									JOINT RightHandThumb2
									{
										OFFSET -2.507072 -1.447464 1.447461
										CHANNELS 3 Xrotation Yrotation Zrotation
										JOINT RightHandThumb3
										{
											OFFSET -2.898338 -1.673355 1.673357
											CHANNELS 3 Xrotation Yrotation Zrotation
											End Site
											{
												OFFSET 0.295959 3.727692 -0.131651
											}
										}
									}
								}
								JOINT RightHandIndex1
								{
									OFFSET -14.190811 -0.254547 3.840278
									CHANNELS 3 Xrotation Yrotation Zrotation
									JOINT RightHandIndex2
									{
										OFFSET -3.551727 0.000000 -0.000000
										CHANNELS 3 Xrotation Yrotation Zrotation
										JOINT RightHandIndex3
										{
											OFFSET -2.894196 0.000000 0.000000
											CHANNELS 3 Xrotation Yrotation Zrotation
											End Site
											{
												OFFSET 1.000603 2.690872 0.366626
											}
										}
									}
								}
								JOINT RightHandMiddle1
								{
									OFFSET -13.776489 0.000000 0.000000
									CHANNELS 3 Xrotation Yrotation Zrotation
									JOINT RightHandMiddle2
									{
										OFFSET -3.438232 0.000000 0.000000
										CHANNELS 3 Xrotation Yrotation Zrotation
										JOINT RightHandMiddle3
										{
											OFFSET -3.691551 0.000000 0.000000
											CHANNELS 3 Xrotation Yrotation Zrotation
											End Site
											{
												OFFSET 1.082298 3.499527 0.457670
											}
										}
									}
								}
								JOINT RightHandRing1
								{
									OFFSET -13.966164 -0.268127 -3.067488
									CHANNELS 3 Xrotation Yrotation Zrotation
									JOINT RightHandRing2
									{
										OFFSET -3.162567 0.000000 0.000000
										CHANNELS 3 Xrotation Yrotation Zrotation
										JOINT RightHandRing3
										{
											OFFSET -3.324348 0.000000 0.000000
											CHANNELS 3 Xrotation Yrotation Zrotation
											End Site
											{
												OFFSET 0.861900 3.184998 0.405154
											}
										}
									}
								}
								JOINT RightHandPinky1
								{
									OFFSET -13.131393 -0.168503 -5.746925
									CHANNELS 3 Xrotation Yrotation Zrotation
									JOINT RightHandPinky2
									{
										OFFSET -2.849182 0.000000 0.000000
										CHANNELS 3 Xrotation Yrotation Zrotation
										JOINT RightHandPinky3
										{
											OFFSET -2.805038 0.000000 0.000000
											CHANNELS 3 Xrotation Yrotation Zrotation
											End Site
											{
												OFFSET 0.882500 2.642609 0.325652
											}
										}
									}
								}
							}
							JOINT Right_Sleeve
							{
								OFFSET -6.592125 -0.646545 0.805568
								CHANNELS 3 Xrotation Yrotation Zrotation
								End Site
								{
									OFFSET 0.000179 20.275787 -0.000000
								}
							}
						}
					}
				}
				JOINT Bind_Right_JacketString
				{
					OFFSET -3.534800 11.969597 7.200700
					CHANNELS 3 Xrotation Yrotation Zrotation
					JOINT Bind_Right_JacketString1
					{
						OFFSET -0.319900 -6.102600 2.794100
						CHANNELS 3 Xrotation Yrotation Zrotation
						End Site
						{
							OFFSET 0.000000 6.719452 0.000000
						}
					}
				}
				JOINT Bind_Left_JacketString
				{
					OFFSET 2.904800 11.969597 7.200700
					CHANNELS 3 Xrotation Yrotation Zrotation
					JOINT Bind_Left_JacketString1
					{
						OFFSET 0.364800 -5.904503 3.186800
						CHANNELS 3 Xrotation Yrotation Zrotation
						End Site
						{
							OFFSET 0.000000 6.719513 0.000000
						}
					}
				}
				JOINT HairE
				{
					OFFSET 5.915200 17.612701 -11.592200
					CHANNELS 3 Xrotation Yrotation Zrotation
					JOINT HairE1
					{
						OFFSET 0.289200 -7.171898 -1.284500
						CHANNELS 3 Xrotation Yrotation Zrotation
						End Site
						{
							OFFSET 0.000000 7.291756 0.000000
						}
					}
				}
				JOINT HairF
				{
					OFFSET -0.864800 17.612701 -11.592200
					CHANNELS 3 Xrotation Yrotation Zrotation
					JOINT HairF1
					{
						OFFSET 0.000000 -14.087097 -2.127501
						CHANNELS 3 Xrotation Yrotation Zrotation
						End Site
						{
							OFFSET 0.000000 14.246841 0.000000
						}
					}
				}
				JOINT HairG
				{
					OFFSET -8.087700 17.612701 -11.592200
					CHANNELS 3 Xrotation Yrotation Zrotation
					JOINT HairG1
					{
						OFFSET -0.293600 -6.081398 -0.910100
						CHANNELS 3 Xrotation Yrotation Zrotation
						End Site
						{
							OFFSET 0.000000 6.156120 0.000000
						}
					}
				}
			}
		}
	}
	JOINT Pouch
	{
		OFFSET 0.000000 4.394501 10.847300
		CHANNELS 3 Xrotation Yrotation Zrotation
		End Site
		{
			OFFSET 0.000000 21.880577 0.000000
		}
	}
	JOINT Bag
	{
		OFFSET -13.229000 4.813004 -0.593300
		CHANNELS 3 Xrotation Yrotation Zrotation
		End Site
		{
			OFFSET 0.000000 21.880577 0.000000
		}
	}
	JOINT OccupyGuyFacialAnim_Joint
	{
		OFFSET 1.000000 -70.206398 -1.655000
		CHANNELS 3 Xrotation Yrotation Zrotation
		End Site
		{
			OFFSET 0.000000 21.880577 0.000000
		}
	}
}
MOTION
Frames: 4
Frame Time: 0.016667
-10.847683 11.123543 -57.435604 -87.111106 26.364149 5.256667 -0.000000 0.000000 -0.000000 -60.236606 12.003281 32.197587 66.371735 11.512598 -2.405277 17.510122 9.976173 -4.708765 0.000001 0.000000 -0.000000 -0.000000 -0.000001 -0.000002 -57.282222 2.141542 -34.903612 110.147749 -1.874249 5.351165 25.727929 1.242372 21.365988 -0.000001 -0.000000 -0.000000 -0.000001 -0.000001 0.000000 54.077753 11.193495 -2.824305 20.535749 3.211055 0.186204 20.612230 2.862302 0.333962 6.354680 0.273875 -2.216755 32.669222 -1.249306 -2.725191 -0.000003 -0.000001 -0.000003 -0.000003 -0.000001 -0.000003 -0.000003 -0.000001 -0.000001 -0.000003 -0.000001 -0.000003 -0.000003 -0.000001 0.000001 -0.000003 -0.000001 -0.000003 -0.000003 -0.000001 0.000001 -0.000003 -0.000001 -0.000003 -0.000003 -0.000001 -0.000003 0.690092 -7.698570 -13.129606 -23.121929 -24.042640 -24.824239 -0.000034 -63.058813 -0.000024 -1.509107 -20.163900 -5.466384 -8.685510 -15.954373 1.210016 21.854507 36.310809 -10.832609 0.000002 -0.000001 -0.000000 0.653240 -15.996943 0.940952 1.493560 3.908512 -41.813971 -0.000001 0.000000 -0.000000 0.176402 0.770547 4.717977 1.760993 4.187606 -45.600935 0.000001 -0.000000 -0.000001 -0.158511 11.618691 1.853065 2.336908 4.681181 -53.039499 0.000002 0.000001 0.000003 5.097419 24.546788 -12.359223 2.096985 4.491184 -50.039199 0.000003 -0.000002 0.000003 0.000001 -0.000000 0.000001 0.136778 13.961789 14.788451 -26.720448 -13.516587 33.282112 0.000004 41.763041 -0.000007 -11.101741 -25.897371 44.633907 -8.583318 16.136747 -7.178727 7.869623 -18.273625 9.753304 0.000003 0.000001 0.000001 1.587543 7.438684 -9.026629 0.644891 -2.366434 30.483933 -0.000002 0.000000 -0.000001 2.008403 2.097555 -33.232798 0.823276 -2.645919 34.561662 0.000001 0.000002 -0.000000 -0.161308 -5.730953 -3.494313 1.189565 -3.110745 41.846042 0.000002 -0.000000 0.000001 -0.080011 -27.023999 -1.328620 1.055491 -2.954425 39.312154 -0.000000 0.000000 0.000001 0.000000 -0.000005 -0.000001 0.000001 0.000001 0.000002 0.000001 0.000001 0.000002 0.000001 0.000001 0.000001 0.000001 0.000001 0.000001 0.000001 0.000001 0.000002 0.000001 0.000001 0.000002 0.000001 0.000001 0.000001 0.000001 0.000001 0.000001 0.000001 0.000001 0.000002 0.000001 0.000001 0.000002 -0.000000 0.000000 -0.000000 -0.000000 0.000000 -0.000000 -0.000000 0.000000 -0.000000 
-10.656932 11.091511 -58.477577 -91.513989 25.932029 5.643732 -0.000000 0.000000 0.000001 -56.184740 11.489620 31.819461 64.059245 10.659040 -0.977672 19.374740 9.882818 -1.990112 0.000002 -0.000001 0.000000 -0.000000 0.000000 -0.000002 -51.757623 1.861853 -31.619101 108.404781 -2.544252 3.038568 24.244286 0.570312 22.076281 0.000001 -0.000001 0.000001 0.000001 -0.000000 -0.000001 53.954232 12.205030 -1.930683 20.987674 3.430235 0.332319 21.083093 3.010462 0.480104 6.011285 0.280396 -2.502182 29.147542 -1.772882 -3.475375 0.000003 -0.000001 0.000002 0.000003 -0.000001 0.000002 0.000003 -0.000001 0.000003 0.000003 -0.000001 0.000002 0.000002 -0.000001 -0.000002 0.000003 -0.000001 0.000002 0.000002 -0.000001 -0.000002 0.000003 -0.000001 0.000002 0.000003 -0.000001 0.000002 0.654636 -7.640291 -13.060572 -19.361652 -24.125229 -21.499024 0.000067 -64.350784 0.000068 -16.742493 -19.468592 -13.423420 -8.647176 -15.819246 1.255099 21.674188 36.224940 -10.484478 -0.000000 -0.000000 0.000000 0.555423 -15.865700 0.644525 1.453097 3.862925 -41.217091 -0.000000 0.000002 0.000000 0.167800 0.758916 4.236391 1.725433 4.152582 -45.111972 0.000001 -0.000001 -0.000003 -0.074906 11.507235 1.341954 2.289184 4.644976 -52.452154 0.000000 0.000000 -0.000003 5.165658 24.212513 -12.763523 2.067876 4.466714 -49.666325 0.000001 0.000000 -0.000001 0.000001 0.000001 0.000002 0.281185 14.030643 13.544987 -21.025803 -14.046619 33.984351 0.000000 42.419699 -0.000002 -13.856792 -29.911212 39.389568 -8.524662 16.035846 -7.103582 7.804552 -18.123444 9.475638 -0.000001 -0.000001 0.000001 1.572313 7.449079 -8.920431 0.613297 -2.311954 29.709824 -0.000006 0.000003 0.000002 1.979184 2.094978 -32.626926 0.792740 -2.601079 33.894431 0.000001 0.000000 -0.000002 -0.150397 -5.701278 -3.349980 1.148416 -3.064241 41.082102 0.000000 -0.000001 -0.000001 -0.000285 -26.834548 -1.130547 1.024675 -2.916452 38.710565 -0.000003 0.000001 0.000001 -0.000000 -0.000001 -0.000002 -0.000001 0.000002 0.000001 -0.000001 0.000002 0.000001 -0.000001 0.000002 0.000001 -0.000001 0.000002 0.000001 -0.000001 0.000002 0.000001 -0.000001 0.000002 0.000001 -0.000001 0.000002 0.000001 -0.000001 0.000002 0.000001 -0.000001 0.000002 0.000001 -0.000001 0.000002 0.000001 -0.000000 0.000000 0.000001 -0.000000 0.000000 0.000001 -0.000000 0.000000 0.000001 
-10.442927 11.135769 -59.499973 -96.141886 25.462817 6.242199 -0.000000 0.000000 -0.000000 -51.785415 11.288047 31.861186 61.810494 9.594506 0.329782 21.197173 9.076662 -0.571540 0.000001 -0.000000 -0.000001 0.000003 0.000002 0.000002 -45.850486 1.841150 -28.620543 106.997454 -4.058632 0.617023 22.415807 0.000248 23.205482 0.000003 0.000002 -0.000000 -0.000003 0.000000 -0.000001 53.801052 12.848007 -0.977485 21.302513 3.531559 0.486730 21.413456 3.045617 0.639506 5.772046 0.276193 -2.724586 26.591366 -2.420396 -3.858284 0.000000 0.000002 0.000002 0.000000 0.000002 0.000002 0.000000 0.000002 0.000003 0.000000 0.000002 -0.000001 0.000003 0.000000 0.000001 0.000000 0.000002 -0.000001 0.000003 0.000000 0.000001 0.000000 0.000002 0.000002 0.000000 0.000002 0.000002 0.618662 -7.705186 -13.035397 -16.051283 -24.091793 -18.542275 -0.000015 -64.438914 0.000004 -29.438289 -14.660900 -23.712747 -8.606913 -15.678296 1.302600 21.493738 36.137780 -10.137162 0.000001 0.000001 -0.000000 0.451711 -15.724111 0.326245 1.413709 3.817589 -40.628974 0.000000 0.000000 -0.000004 0.157835 0.750891 3.729253 1.690772 4.117848 -44.631096 0.000000 0.000000 -0.000003 0.010161 11.394064 0.806336 2.242458 4.608817 -51.872951 -0.000001 0.000000 -0.000002 5.234631 23.869469 -13.188061 2.039550 4.442561 -49.301706 -0.000000 0.000000 0.000001 0.000000 0.000000 0.000001 0.368019 14.232622 12.568255 -15.163283 -12.817763 34.004449 0.000004 41.556896 -0.000009 -18.970128 -29.594445 30.817629 -8.466246 15.929005 -7.031903 7.746170 -17.979939 9.203219 -0.000000 0.000003 0.000002 1.531156 7.435909 -8.676666 0.587242 -2.265752 29.057609 -0.000004 -0.000001 0.000002 1.934924 2.080041 -31.865390 0.767984 -2.563884 33.345134 -0.000000 0.000001 -0.000002 -0.131341 -5.679944 -3.068219 1.114174 -3.024580 40.437346 0.000002 -0.000000 -0.000001 0.140586 -26.599519 -0.778670 1.000176 -2.885651 38.226441 -0.000000 0.000001 -0.000001 -0.000001 0.000001 -0.000000 -0.000001 0.000001 -0.000002 -0.000001 -0.000001 -0.000002 -0.000001 0.000001 -0.000002 -0.000001 0.000001 -0.000002 -0.000001 0.000001 -0.000002 -0.000001 -0.000001 -0.000002 -0.000001 0.000001 -0.000002 -0.000001 0.000001 -0.000002 -0.000001 0.000001 -0.000002 -0.000001 -0.000001 -0.000002 -0.000000 0.000000 -0.000000 -0.000000 0.000000 -0.000000 -0.000000 0.000000 -0.000000 
-10.236360 11.272934 -60.477600 -100.938086 25.081259 6.959053 0.000000 0.000000 0.000000 -47.309025 11.244350 32.417871 59.882270 8.665323 1.537690 22.340133 7.646880 -0.490884 -0.000000 -0.000001 -0.000002 -0.000000 0.000000 -0.000000 -39.621606 1.845226 -26.138847 105.727053 -6.331291 -1.718540 20.605895 -0.361430 24.825835 0.000000 0.000001 0.000001 0.000000 -0.000000 0.000000 53.441128 13.060829 0.041930 21.392876 3.485090 0.638482 21.512840 2.946442 0.804825 5.701516 0.269787 -2.859058 25.666241 -3.057666 -3.930420 0.000002 -0.000003 -0.000002 0.000002 -0.000003 -0.000002 0.000002 -0.000003 -0.000001 0.000002 -0.000003 -0.000001 0.000002 -0.000000 0.000000 0.000002 -0.000003 -0.000001 0.000002 -0.000000 0.000000 0.000002 -0.000003 -0.000002 0.000002 -0.000003 -0.000002 0.583246 -7.873918 -13.009940 -13.224168 -24.020105 -16.352815 -0.000008 -63.453728 -0.000016 -35.332207 -4.373215 -31.544669 -8.564851 -15.531821 1.352418 21.313257 36.049458 -9.790870 0.000000 0.000001 -0.000001 0.342704 -15.572442 -0.012873 1.375380 3.772542 -40.049627 -0.000001 0.000003 -0.000001 0.146529 0.746355 3.197623 1.656952 4.083392 -44.158273 -0.000000 -0.000000 0.000004 0.096285 11.279233 0.247308 2.196757 4.572687 -51.301909 -0.000001 0.000001 -0.000005 5.303519 23.518121 -13.631769 2.011994 4.418793 -48.945119 0.000001 -0.000001 -0.000001 0.000001 -0.000001 -0.000001 0.413013 14.399152 11.899811 -8.989452 -9.774889 33.560179 0.000001 39.122224 -0.000006 -23.648649 -24.014336 23.764233 -8.408911 15.818496 -6.963135 7.693878 -17.841822 8.937322 0.000001 -0.000001 -0.000001 1.460731 7.396319 -8.275144 0.567193 -2.229303 28.546366 -0.000001 -0.000003 0.000002 1.874020 2.050760 -30.926834 0.749640 -2.535817 32.932631 0.000004 0.000000 0.000001 -0.103146 -5.668193 -2.628682 1.087580 -2.993141 39.930686 0.000001 -0.000002 -0.000001 0.348479 -26.329080 -0.252837 0.982751 -2.863414 37.878945 -0.000002 0.000001 0.000001 -0.000001 0.000000 0.000001 0.000001 -0.000001 -0.000003 0.000001 -0.000000 -0.000002 0.000001 -0.000001 -0.000002 0.000001 -0.000001 -0.000002 0.000001 -0.000001 -0.000003 0.000001 -0.000000 -0.000002 0.000001 -0.000001 -0.000002 0.000001 -0.000001 -0.000002 0.000001 -0.000001 -0.000003 0.000001 -0.000000 -0.000002 0.000000 0.000000 0.000000 0.000000 0.000000 0.000000 0.000000 0.000000 0.000000 
